# xmcd CD database file
#
# Track frame offsets:
#	150
#	27842
#	49465
#	79900
#	112712
#	144297
#
# Disc length: 2182 seconds
#
# Revision: 0
# Processed by: cddbd v1.5.2PL0 Copyright (c) Steve Scherf et al.
# Submitted via: CDex 1.70beta3
#
DISCID=44088406
DTITLE=Ben Webster - Live in Denmark
DYEAR=1965
DGENRE=Jazz
TTITLE0=Pennies From Heaven
TTITLE1=Blues In B-Flat
TTITLE2=My Romance
TTITLE3=In A Mellow Tone
TTITLE4=How Long Has This Been Going On
TTITLE5=Sunday
EXTD=YEAR: 1965
EXTT0=
EXTT1=
EXTT2=
EXTT3=
EXTT4=
EXTT5=
PLAYORDER=
